<svg width="15" height="14" viewBox="0 0 15 14" fill="none" xmlns="http://www.w3.org/2000/svg">
<path fill-rule="evenodd" clip-rule="evenodd" d="M7.89094 11.375H12.1781C12.9257 11.3773 13.6435 11.1018 14.1729 10.6093C14.7024 10.1167 15 9.44772 15 8.75001V2.62501C15 1.9273 14.7024 1.25829 14.1729 0.765758C13.6435 0.273223 12.9257 -0.0023111 12.1781 1.46042e-05H2.82188C2.07433 -0.0023111 1.35655 0.273223 0.827074 0.765758C0.297599 1.25829 -4.15302e-06 1.9273 0 2.62501V8.75001C-4.15302e-06 9.44772 0.297599 10.1167 0.827074 10.6093C1.35655 11.1018 2.07433 11.3773 2.82188 11.375H3.75V13.1171C3.74775 13.3506 3.84553 13.5751 4.02159 13.7409C4.19765 13.9067 4.43739 14 4.6875 14H3.75C4.35339 13.9725 4.93711 13.7909 5.4375 13.475L7.6875 11.9C7.95656 11.7119 8.01844 11.5159 7.89094 11.375ZM10.2523 6.12501H4.74732C4.49985 6.31615 4.13581 6.29481 3.9159 6.07627C3.696 5.85773 3.696 5.51729 3.9159 5.29875C4.13581 5.08021 4.49985 5.05887 4.74732 5.25001H10.2533C10.5007 5.05887 10.8648 5.08021 11.0847 5.29875C11.3046 5.51729 11.3046 5.85773 11.0847 6.07627C10.8648 6.29481 10.5007 6.31615 10.2533 6.12501H10.2523ZM8.62521 7.8752H4.50021C4.28106 7.97468 4.0173 7.91916 3.86512 7.74152C3.71293 7.56388 3.71293 7.31153 3.86512 7.13388C4.0173 6.95624 4.28106 6.90072 4.50021 7.0002H8.62521C8.84436 6.90072 9.10811 6.95624 9.2603 7.13388C9.41248 7.31153 9.41248 7.56388 9.2603 7.74152C9.10811 7.91916 8.84436 7.97468 8.62521 7.8752ZM10.4755 4.37488H4.52242C4.29994 4.48324 4.02651 4.43073 3.86794 4.24919C3.70938 4.06766 3.70938 3.8071 3.86794 3.62556C4.02651 3.44402 4.29994 3.39151 4.52242 3.49988H10.4774C10.6999 3.39151 10.9733 3.44402 11.1319 3.62556C11.2904 3.8071 11.2904 4.06766 11.1319 4.24919C10.9733 4.43073 10.6999 4.48324 10.4774 4.37488H10.4755Z" fill="#A3A3A3"/>
</svg>
