<svg width="139" height="26" viewBox="0 0 139 26" fill="none" xmlns="http://www.w3.org/2000/svg">
<path fill-rule="evenodd" clip-rule="evenodd" d="M69.6489 10.1274C69.7153 9.78513 69.7593 9.50584 69.7812 9.28904C69.8037 9.07224 69.7261 8.83885 69.5498 8.58787C69.6382 8.22312 69.71 7.93797 69.7646 7.7324C69.8198 7.52732 69.8257 7.24217 69.7812 6.87742C69.98 6.28465 70.2832 5.78269 70.6914 5.37205C71.0996 4.96189 71.5459 4.61375 72.0312 4.32908C72.2441 4.20408 72.4609 4.08787 72.6821 3.98045C72.9653 3.84275 73.2559 3.71922 73.5532 3.61033C73.7217 3.54881 73.8867 3.48972 74.0483 3.43406C74.23 3.37156 74.4072 3.31248 74.5801 3.25681C74.7378 3.20652 74.8916 3.15867 75.0425 3.11424C75.0425 3.08006 75.0361 3.05222 75.0239 3.03123C75.0034 2.99558 74.9653 2.97752 74.9102 2.97752C74.8218 2.97752 74.7998 2.92039 74.8438 2.80662C75.4072 2.69871 75.9717 2.56785 76.5371 2.41453C77.1675 2.24314 77.7998 2.04295 78.4336 1.81443L78.7988 1.68406C78.9961 1.61521 79.1943 1.54734 79.3931 1.48045L79.7935 1.34812C80.2705 1.19236 80.7515 1.04344 81.2368 0.901346C81.5308 0.815408 81.8262 0.7324 82.123 0.651346C83.3804 0.309549 84.6709 0.0986112 85.9941 0.0185331C87.3179 -0.0610568 88.7075 0.115701 90.1631 0.548806C90.2515 0.822732 90.3726 1.08494 90.5273 1.33543C90.6816 1.5864 90.8413 1.83152 91.0068 2.07127L91.1284 2.24998C91.1777 2.32469 91.2256 2.3989 91.272 2.47215C91.3354 2.57322 91.396 2.67332 91.4536 2.77244C91.5859 3.00047 91.6631 3.23972 91.6851 3.4907C91.9497 3.74168 92.165 4.00974 92.3306 4.2949C92.3623 4.34959 92.3892 4.40818 92.4106 4.47019C92.4404 4.55515 92.4609 4.64695 92.4712 4.74607C92.4927 4.9492 92.4731 5.18064 92.4131 5.4409L92.2104 5.59178C92.0303 5.72361 91.8442 5.85594 91.6523 5.98777C91.3877 6.17039 91.1118 6.34129 90.8252 6.50096C89.8325 6.25047 88.8398 6.15916 87.8472 6.22752C87.3579 6.26121 86.8926 6.29734 86.4517 6.3364L86.0845 6.37107L85.8643 6.39207C85.7227 6.40623 85.584 6.42039 85.4482 6.43553L85.167 6.46678C84.9243 6.19334 84.6377 6.06199 84.3066 6.07371C83.9761 6.08494 83.6284 6.14207 83.2646 6.24461L82.8267 6.36912L82.189 6.55222C82.0176 6.60252 81.8511 6.63474 81.6895 6.64988C81.5195 6.66551 81.355 6.6616 81.1968 6.63816C80.9541 6.86619 80.6343 7.02 80.2368 7.09959C79.8398 7.17967 79.4209 7.24217 78.9795 7.28806C78.9761 7.30515 78.9741 7.32127 78.9727 7.3364C78.9712 7.35252 78.9707 7.36814 78.9717 7.3823C78.9736 7.41648 78.981 7.44627 78.9946 7.47117C78.999 7.47947 79.0044 7.48728 79.0103 7.49461C79.0205 7.50681 79.0322 7.51804 79.0459 7.52732C79.1118 7.57322 79.123 7.66404 79.0791 7.80125C79.2334 8.00633 79.4429 8.1489 79.7075 8.22849C79.9722 8.30857 80.2427 8.38279 80.5181 8.45115C80.7939 8.51951 81.042 8.61619 81.2627 8.74168C81.3608 8.79734 81.4434 8.86765 81.5107 8.95261C81.5483 8.99949 81.5811 9.05125 81.6089 9.10691C81.6445 9.17771 81.6724 9.25535 81.6929 9.34031C81.8638 9.35008 82.0244 9.37595 82.1748 9.41746C82.3735 9.47263 82.5552 9.55515 82.7188 9.66551C82.8511 9.75486 82.9736 9.85301 83.0869 9.95945C83.2197 10.0835 83.3394 10.2192 83.4463 10.3667C83.5083 10.4521 83.5649 10.539 83.6162 10.6279C83.6489 10.685 83.6797 10.7427 83.708 10.8008L83.749 10.8886L83.772 10.9414C83.813 11.039 83.8477 11.1382 83.8765 11.2392C83.9648 11.5469 83.998 11.8261 83.9761 12.0771C84.064 12.3052 84.1577 12.3965 84.2573 12.3506C84.3071 12.3276 84.3608 12.331 84.4189 12.3598C84.4766 12.3882 84.5386 12.4424 84.6045 12.522C84.626 12.6054 84.6543 12.6899 84.6899 12.7759C84.7993 13.0405 84.9751 13.3154 85.2168 13.5996C85.5366 13.9756 85.7847 14.3803 85.9609 14.8139L86.0269 15.8476L86.0771 16.6611C86.083 16.7568 86.085 16.8525 86.083 16.9477C86.0811 17.0454 86.0747 17.1426 86.0645 17.2392C86.0552 17.3296 86.042 17.4194 86.0254 17.5088C85.9775 17.7646 85.9014 18.018 85.7959 18.269C85.4209 19.2724 84.8804 20.1733 84.1743 20.9712C83.4688 21.7695 82.6689 22.4707 81.7754 23.0752C80.8823 23.6797 79.9395 24.2041 78.9468 24.6489C77.9541 25.0932 76.9722 25.4638 76.002 25.7607C75.9136 25.7378 75.8086 25.7378 75.6875 25.7607C75.6494 25.7676 75.6206 25.7656 75.6011 25.7549C75.5854 25.7461 75.5757 25.7314 75.5718 25.7109C75.5654 25.6758 75.5762 25.624 75.605 25.5552C75.4062 25.7378 75.1802 25.8515 74.9263 25.8974C74.6729 25.9429 74.397 25.9599 74.0991 25.9487C73.9673 25.9438 73.835 25.9375 73.7026 25.9302C73.5371 25.9209 73.3716 25.9101 73.2061 25.8974C72.9082 25.8745 72.6157 25.8857 72.3291 25.9316C72.2471 25.8467 72.1685 25.7617 72.0933 25.6767C72.0073 25.5791 71.9258 25.4819 71.8496 25.3843C71.7676 25.2803 71.6948 25.1655 71.6313 25.039C71.583 24.9438 71.54 24.8423 71.502 24.7344C71.4653 24.7265 71.4355 24.7134 71.4121 24.6948C71.3652 24.6567 71.3457 24.5957 71.353 24.5117C71.3579 24.458 71.3516 24.4155 71.3335 24.3847C71.3101 24.3442 71.2671 24.3237 71.2041 24.3237C71.2041 24.2886 71.2056 24.2563 71.209 24.228L71.2153 24.1875L71.2241 24.1509L71.2373 24.1186L71.3032 23.9819C71.3916 23.9131 71.4302 23.8618 71.4194 23.8276C71.4141 23.811 71.4033 23.7944 71.3872 23.7778C71.3701 23.7602 71.3477 23.7427 71.3198 23.7251C71.2646 23.6909 71.2095 23.6509 71.1548 23.6054C71.0996 23.5595 71.083 23.5029 71.105 23.4345C71.2153 23.229 71.2539 22.9839 71.2207 22.6987C71.1875 22.4136 71.1602 22.123 71.1382 21.8266C71.1157 21.5303 71.1382 21.2505 71.2041 20.9883C71.2705 20.7261 71.458 20.5039 71.7666 20.3213C72.6709 20.4126 73.5259 20.3672 74.3311 20.1845C74.7446 20.0908 75.1465 19.9795 75.5361 19.8496C75.9058 19.7265 76.2651 19.5874 76.6138 19.4321C77.3311 19.1128 78.0146 18.7651 78.6655 18.3887C79.3159 18.0122 79.9502 17.6645 80.5679 17.3452C80.6343 17.1172 80.7388 16.9233 80.8823 16.7637C80.957 16.6802 81.0337 16.5981 81.1118 16.5176C81.1831 16.4443 81.2554 16.3725 81.3291 16.3017C81.4834 16.1538 81.6265 15.9941 81.7593 15.8227C81.8916 15.6518 81.9907 15.4409 82.0566 15.1899C82.0791 15.0991 82.0791 15.0303 82.0566 14.9848C82.0493 14.9697 82.0405 14.9551 82.0308 14.9414L82.0146 14.9204L81.9922 14.896C81.9814 14.8852 81.9697 14.875 81.9575 14.8652C81.9136 14.831 81.8691 14.791 81.8252 14.7456C81.812 14.7319 81.8013 14.7163 81.792 14.6987C81.7705 14.6572 81.7593 14.6045 81.7593 14.54C81.6929 14.5176 81.6323 14.4946 81.5771 14.4717L81.5454 14.4599L81.5029 14.4468C81.4766 14.4404 81.4517 14.4375 81.4282 14.4375C80.8545 14.1411 80.248 13.8901 79.6084 13.685C78.9688 13.4795 78.4282 13.2514 77.9873 13.001C77.8965 13.063 77.8062 13.1094 77.7158 13.1396C77.668 13.1557 77.6201 13.1675 77.5723 13.1748C77.5146 13.1836 77.457 13.186 77.3994 13.1816C77.3682 13.1792 77.3369 13.1748 77.3057 13.1684C77.2681 13.1611 77.2305 13.1509 77.1929 13.1377C76.9282 13.0464 76.6084 12.9551 76.2334 12.8637C75.7378 12.8393 75.2563 12.8022 74.7891 12.7514C74.3833 12.7075 73.9878 12.6538 73.603 12.5903C73.2285 12.5283 72.8594 12.4453 72.4961 12.3413C72.0571 12.2158 71.6265 12.0591 71.2041 11.872C71.1602 11.7348 71.105 11.6152 71.0386 11.5127C70.9727 11.4101 70.8184 11.3813 70.5757 11.4272C70.4209 11.1992 70.2612 10.9883 70.0957 10.7944C69.9302 10.6006 69.7812 10.3779 69.6489 10.1274ZM26.3047 23.9643C26.3706 24.0898 26.4482 24.1982 26.5361 24.2895C26.5698 24.3589 26.603 24.4214 26.6362 24.4775L26.6685 24.5288C26.7129 24.5971 26.7788 24.7344 26.8672 24.9394C27.6611 25.6235 28.709 25.9658 30.0103 25.9658C30.8926 25.9658 31.7695 25.8403 32.6411 25.5893C33.5122 25.3384 34.3228 25.0879 35.0728 24.8369C35.1348 24.811 35.1968 24.789 35.2588 24.7705L35.3218 24.7529L35.4038 24.7344C35.5142 24.7114 35.7017 24.6772 35.9663 24.6318C36.1807 24.6318 36.395 24.6245 36.6094 24.6098C36.7256 24.602 36.8423 24.5923 36.959 24.5801C37.2896 24.5459 37.6206 24.5063 37.9517 24.4604L38.1216 24.437L38.3569 24.4077C38.5342 24.3877 38.7134 24.3711 38.8945 24.3579C39.2144 24.3349 39.5288 24.3237 39.8374 24.3237C39.9512 24.3237 40.064 24.3262 40.1753 24.3315L40.3579 24.3428C40.4868 24.352 40.6138 24.3652 40.7388 24.3818C40.9604 24.4111 41.1763 24.4512 41.3862 24.5029C41.604 24.5566 41.8159 24.6225 42.021 24.7002C42.4844 24.563 42.9365 24.4946 43.3779 24.4946C43.5981 24.4946 43.8301 24.4834 44.0728 24.4604C44.2271 24.3008 44.3706 24.1699 44.5029 24.0674C44.6353 23.9643 44.9106 23.8677 45.3301 23.7763L45.2637 23.3315C45.2817 23.3037 45.2979 23.2749 45.312 23.2451C45.3306 23.2065 45.3462 23.1665 45.3584 23.1245C45.3833 23.0405 45.396 22.9497 45.396 22.8525C45.418 22.7617 45.3408 22.5903 45.1646 22.3398L44.8667 20.5952C44.7202 20.4814 44.5718 20.3799 44.4219 20.291C44.3008 20.2192 44.1792 20.1553 44.0562 20.0991C43.7803 19.9736 43.499 19.854 43.2124 19.7397C42.8813 19.626 42.5728 19.5058 42.2856 19.3804C42.1279 19.3115 41.9663 19.2129 41.8018 19.0849C41.7397 19.0366 41.6772 18.9844 41.6138 18.9277C41.5405 18.8618 41.4668 18.7905 41.3926 18.7134C41.2822 18.6909 41.1938 18.6792 41.1279 18.6792H40.9292C40.7749 18.6792 40.6646 18.6738 40.5986 18.6621C40.5322 18.6509 40.3887 18.5654 40.1685 18.4057C39.5063 18.4741 38.7896 18.5083 38.0176 18.5083C37.0913 18.5312 36.1592 18.5879 35.2217 18.6792C35.0449 18.6963 34.8706 18.7192 34.6987 18.748L34.5742 18.77L34.4541 18.7929C34.3223 18.8198 34.1919 18.8496 34.063 18.8828C33.8628 18.9345 33.666 18.9946 33.4731 19.0635C33.3755 19.0981 33.2783 19.1352 33.1826 19.1743C33.1011 19.2075 33.02 19.2427 32.9399 19.2793C32.8335 19.3276 32.7285 19.3784 32.6245 19.4321C32.4453 19.3701 32.2612 19.3291 32.0718 19.3091C31.9814 19.2998 31.8901 19.2949 31.7974 19.2949C31.5767 19.2949 31.334 19.3291 31.0693 19.3974C31.1133 18.394 31.2676 17.499 31.5327 16.7124C31.7061 16.1972 31.8887 15.6797 32.0806 15.1601C32.1821 14.8857 32.2861 14.6108 32.3926 14.3349C32.5288 14.001 32.6646 13.6636 32.8008 13.3227L32.9224 13.0176C33.0986 12.5732 33.231 11.997 33.3193 11.29C33.4517 11.1762 33.5508 11.0449 33.6172 10.897C33.6831 10.7485 33.7383 10.6059 33.7822 10.4692C33.8267 10.3554 33.8652 10.2412 33.8984 10.1269C33.9312 10.0132 34.0142 9.87644 34.1465 9.71677C34.1836 9.51707 34.2231 9.32761 34.2651 9.1489C34.3481 8.79636 34.4409 8.48386 34.5435 8.2114C34.6978 7.80076 34.8633 7.3906 35.0396 6.97996C35.1943 6.61521 35.3486 6.23289 35.5029 5.83396C35.5972 5.58982 35.6875 5.32224 35.7739 5.03123C35.8286 4.84666 35.8818 4.65232 35.9331 4.44871C36.0215 4.40281 36.1318 4.27732 36.2642 4.07224C36.3125 3.74754 36.3159 3.45506 36.2749 3.19529C36.2578 3.08494 36.2324 2.98045 36.1987 2.88181C36.1846 2.84031 36.1689 2.79978 36.1519 2.76072C36.1309 2.71189 36.1074 2.66453 36.082 2.61863C35.8726 2.24217 35.6245 1.88279 35.3374 1.54099L34.7749 1.02781C34.4888 1.02781 34.1631 0.9824 33.7988 0.891092C33.6011 0.841775 33.3916 0.778787 33.1704 0.702615C32.5415 0.486306 31.9956 0.25242 31.5327 0.00144322C31.4443 0.00144322 31.3672 0.0126737 31.3008 0.0356229C31.2583 0.0502713 31.2202 0.0649198 31.1865 0.0795682L31.1353 0.103982C31.0029 0.149881 30.8486 0.240701 30.6724 0.377908C30.6069 0.647928 30.54 0.915017 30.4717 1.17918C30.3975 1.4658 30.3213 1.749 30.2437 2.0283C30.0303 2.79441 29.8037 3.53269 29.564 4.24314C29.1558 5.45213 28.731 6.68357 28.29 7.93797C28.0474 8.62205 27.7993 9.33445 27.5454 10.0757C27.292 10.8169 27.0327 11.5869 26.7681 12.3847L26.7461 12.4326L26.7212 12.4902L26.7017 12.539C26.6895 12.5708 26.6733 12.6045 26.6543 12.6401C26.6392 12.6679 26.6221 12.6968 26.6025 12.727L26.5161 12.9297C26.4688 13.0425 26.4214 13.1592 26.374 13.2803L26.2715 13.5478C26.1611 13.8447 26.1504 14.1181 26.2383 14.3691C26.0181 14.6426 25.8525 14.9907 25.7422 15.4126C25.6318 15.8345 25.5215 16.2617 25.4111 16.6953C25.3672 16.9463 25.312 17.1855 25.2461 17.4136C25.1357 17.8926 25.0586 18.4057 25.0142 18.9531C24.9702 19.5005 24.981 20.042 25.0474 20.5781C25.1133 21.1137 25.2349 21.6328 25.4111 22.1343C25.5879 22.6362 25.8306 23.081 26.1392 23.4687C26.1836 23.6738 26.2383 23.8388 26.3047 23.9643ZM0 22.3052L0.430176 21.9634L0.463379 21.2446C0.785645 20.4311 1.11377 19.6377 1.44727 18.8633C1.68457 18.313 1.92432 17.7724 2.16699 17.2422L2.53271 16.4468C3.00586 15.4223 3.49561 14.376 4.00342 13.3086C4.07812 13.145 4.15381 12.9819 4.23047 12.8183C4.35693 12.5483 4.48535 12.2783 4.61572 12.0083C4.8252 11.5752 5.0293 11.1303 5.22803 10.6743C5.20557 10.583 5.19482 10.4863 5.19482 10.3838C5.19482 10.3442 5.19824 10.3022 5.20459 10.2573L5.21777 10.1836L5.22949 10.1328C5.23828 10.0981 5.24854 10.062 5.26074 10.0244C5.3418 9.90476 5.41846 9.78855 5.49121 9.67527L5.58252 9.53074C5.74707 9.26707 5.88818 9.02097 6.00537 8.79295C6.19287 8.4282 6.375 8.05174 6.55127 7.66404C6.75 7.20799 6.96484 6.75193 7.19629 6.29588C7.42822 5.83933 7.72021 5.395 8.07324 4.9614L8.30469 4.61961L8.66895 4.65379C8.75732 4.60789 8.85107 4.56834 8.9502 4.53416C9.04932 4.49949 9.17627 4.4824 9.33057 4.4824L9.92627 4.58543C10.6543 4.24314 11.2993 3.74705 11.8618 3.09715C12.4243 2.44724 12.9922 1.66599 13.5659 0.753885L13.9629 0.172342L14.4922 0.514627C14.6025 0.582986 14.7788 0.651346 15.0215 0.719705C15.2642 0.788064 15.5181 0.868142 15.7827 0.958963C16.2461 1.07322 16.6982 1.20408 17.1392 1.35252C17.5806 1.50095 17.9224 1.70017 18.165 1.95115L18.3306 2.25926C18.3745 2.50974 18.4131 2.73777 18.4463 2.94334C18.4795 3.14842 18.5181 3.35349 18.562 3.55906C18.6001 3.76414 18.6357 3.96824 18.6694 4.17137C18.7144 4.44236 18.7559 4.7114 18.7935 4.97849C18.8599 5.44627 18.9038 5.96482 18.9258 6.53513C19.0361 6.99119 19.1411 7.4531 19.2402 7.92039C19.3394 8.38816 19.4331 8.85008 19.5215 9.30613C19.6318 9.96726 19.7529 10.6001 19.8857 11.2046C20.0181 11.8091 20.1943 12.3847 20.415 12.9321C20.6353 12.9321 20.7681 12.9433 20.812 12.9663C21.0767 12.8525 21.3853 12.7837 21.7383 12.7612L22.1685 12.727L22.3008 13.1372C22.3452 13.206 22.3999 13.2744 22.4663 13.3428C22.5327 13.4111 22.6099 13.4795 22.6978 13.5478C22.9663 13.5654 23.1807 13.6128 23.3408 13.6894C23.3911 13.7134 23.436 13.7402 23.4756 13.77C23.5698 13.8418 23.6553 13.9116 23.7319 13.9795C23.7896 14.0303 23.8418 14.0805 23.8892 14.1294C23.9331 14.1753 23.9883 14.2265 24.0547 14.2832C24.1206 14.3403 24.1758 14.3803 24.2197 14.4033L24.8154 14.6426L24.4849 15.2925C24.2422 15.7715 23.8726 16.2387 23.376 16.6953C22.8799 17.1513 22.3228 17.5273 21.7051 17.8237C21.7271 17.9033 21.7451 17.98 21.7588 18.0537C21.7725 18.1279 21.7822 18.1997 21.7881 18.2685C21.7988 18.4053 21.8267 18.5649 21.8706 18.7475C21.959 19.2036 22.0308 19.6767 22.0859 20.1675C22.1411 20.6577 22.1353 21.165 22.0693 21.6894C21.8486 22.2827 21.5894 22.8125 21.2915 23.2803C20.9941 23.7475 20.6411 24.1694 20.2329 24.5459C19.8247 24.9223 19.3672 25.23 18.8599 25.4697C18.5337 25.6235 18.1982 25.7329 17.854 25.7973C17.6626 25.833 17.4683 25.855 17.2715 25.8628C17.1191 25.8291 16.9868 25.7925 16.8745 25.7529C16.7598 25.7129 16.666 25.6699 16.5933 25.6235C16.4497 25.5322 16.3232 25.4409 16.2129 25.3496C16.1157 25.2744 16.0288 25.2129 15.9517 25.1655C15.8887 25.1264 15.8325 25.0967 15.7827 25.0762L15.3525 24.8711L15.4849 24.3579C15.5229 24.2529 15.5371 24.1557 15.5278 24.0659C15.521 23.9995 15.501 23.937 15.4683 23.8789C15.3911 23.7422 15.2314 23.5595 14.9888 23.3315C14.9541 23.3047 14.9209 23.2768 14.8896 23.248C14.8594 23.2202 14.8306 23.1919 14.8037 23.1626L14.7568 23.1094C14.6909 23.0293 14.6138 22.9438 14.5254 22.8525L13.8638 22.0659L14.9556 21.7578C15.3457 21.6504 15.6592 21.5254 15.896 21.3818C15.9805 21.3305 16.0557 21.2773 16.1206 21.2212C16.1821 21.1684 16.2349 21.1137 16.2788 21.0566C16.4995 20.7715 16.5879 20.2641 16.5435 19.5342C15.9922 19.4204 15.54 19.4033 15.187 19.4829C14.834 19.563 14.4814 19.6484 14.1284 19.7397C13.6211 19.8764 13.1245 19.9961 12.6392 20.0986C12.1543 20.2016 11.6245 20.2529 11.0513 20.2529C10.6763 20.2529 10.2793 20.2187 9.85986 20.1499L9.49609 20.1157L9.39697 19.7397L9.396 19.7251L9.39404 19.7119C9.38965 19.6933 9.38135 19.6743 9.36914 19.6543C9.36133 19.6416 9.35156 19.6284 9.33984 19.6147L9.31396 19.5859L9.16504 19.4316C9.05469 19.2949 8.92236 19.1123 8.76807 18.8843C8.67627 18.7485 8.62744 18.5928 8.62158 18.4165C8.61768 18.2969 8.6333 18.1679 8.66895 18.0293C8.51465 17.7783 8.42627 17.5161 8.4043 17.2422C8.31592 17.4248 8.24414 17.6015 8.18896 17.7724C8.13379 17.9438 8.08447 18.1089 8.04004 18.2685L7.90771 18.7134L7.47754 18.7817C7.46875 18.791 7.45996 18.8008 7.45166 18.812L7.43555 18.8349L7.42383 18.8535L7.40332 18.8906L7.375 18.9516L7.36182 18.9868C7.32861 19.0781 7.32324 19.1465 7.34521 19.1924L7.47754 19.5683L7.14697 19.8764C7.10254 19.9448 7.04785 20.0019 6.98145 20.0473L6.92432 20.0893C6.88281 20.1211 6.84668 20.1528 6.81592 20.1845C6.77197 20.435 6.71143 20.6748 6.63379 20.9028L6.5835 21.0493C6.521 21.2285 6.45508 21.4077 6.38574 21.5869L6.22461 22.1245L6.07129 22.6474C6.02002 22.8242 5.98193 23.0014 5.95752 23.1787C5.93457 23.3437 5.92285 23.5088 5.92285 23.6738L5.79053 24.1181L5.76514 24.1587L5.73779 24.1987L5.72217 24.2202L5.69238 24.2593L5.66211 24.2959C5.64551 24.3149 5.62842 24.3335 5.61084 24.3511C5.54004 24.4223 5.46191 24.4814 5.37646 24.5288C5.21143 24.6201 5.05127 24.6997 4.89697 24.768C4.75879 24.8252 4.64648 24.8823 4.56006 24.9394C4.50879 24.9736 4.4668 25.0078 4.43359 25.042L4.33447 25.4868L3.83789 25.5552L3.48145 25.6382C3.37402 25.6621 3.28906 25.6802 3.22607 25.6919C3.10449 25.7148 2.9668 25.7261 2.8125 25.7261L2.38232 25.6919C2.11768 25.4184 1.90234 25.2075 1.7373 25.0591C1.57178 24.9106 1.37842 24.7798 1.1582 24.6655L0.959473 24.3921C0.871094 24.2095 0.815918 24.0444 0.793945 23.896C0.771973 23.7475 0.73877 23.5937 0.694824 23.4341C0.686035 23.376 0.676758 23.3218 0.666504 23.271C0.64502 23.1645 0.619629 23.0737 0.59082 22.998C0.579102 22.9673 0.566895 22.9389 0.554199 22.9136C0.536133 22.8769 0.516602 22.8452 0.496094 22.8183L0 22.3052ZM10.5552 13.4116C10.2461 13.8677 9.94824 14.3467 9.66162 14.8481C9.73926 14.8364 9.81592 14.8276 9.89111 14.8218C9.96484 14.8164 10.0371 14.8139 10.1084 14.8139C10.1831 14.8139 10.2598 14.811 10.3379 14.8047C10.4092 14.7988 10.4814 14.7905 10.5552 14.7798C11.3271 14.7344 12.0439 14.6772 12.7056 14.6089C13.0801 14.5703 13.4722 14.5171 13.8823 14.4492C14.0894 14.415 14.3003 14.3769 14.5161 14.3354L14.8564 14.2666L14.7573 13.8027C14.6914 13.4961 14.6235 13.1875 14.5537 12.876C14.4653 12.4819 14.373 12.0849 14.2773 11.6841C14.0679 10.8056 13.8418 9.92234 13.5991 9.03269L13.4336 9.37498C12.8823 9.9907 12.3525 10.6518 11.8452 11.3589C11.3379 12.0659 10.9189 12.7387 10.5879 13.3774L10.5552 13.4116ZM45.2305 22.3052L45.6606 21.9634L45.6938 21.2446C46.2451 19.8535 46.813 18.5195 47.3975 17.2422C47.5747 16.8559 47.7539 16.4663 47.936 16.0737L48.1489 15.6142L48.4062 15.0635C48.6768 14.4848 48.9526 13.8999 49.2339 13.3086C49.4326 12.875 49.6367 12.4419 49.8462 12.0083C50.0557 11.5752 50.2598 11.1303 50.4585 10.6743C50.436 10.583 50.4253 10.4863 50.4253 10.3838C50.4253 10.2807 50.4473 10.1611 50.4912 10.0244C50.5894 9.87937 50.6816 9.73875 50.7676 9.60301C50.8491 9.47459 50.9248 9.35008 50.9951 9.22996C51.084 9.07761 51.1646 8.93211 51.2358 8.79295C51.4233 8.4282 51.6055 8.05174 51.7817 7.66404C51.9805 7.20799 52.1953 6.75193 52.4268 6.29588C52.6587 5.83933 52.9507 5.395 53.3037 4.9614L53.5352 4.61961L53.8994 4.65379C53.9346 4.63572 53.9702 4.61863 54.0068 4.60252C54.063 4.57762 54.1206 4.55467 54.1807 4.53416C54.2798 4.49949 54.4067 4.4824 54.561 4.4824L55.1567 4.58543C55.5483 4.40135 55.916 4.17234 56.2598 3.8989C56.4004 3.78758 56.5366 3.66844 56.6689 3.54197L56.752 3.4614C56.7954 3.41844 56.8384 3.37449 56.8809 3.33006L56.9102 3.29929C56.9722 3.23338 57.0327 3.16599 57.0923 3.09715C57.6548 2.44724 58.2227 1.66599 58.7964 0.753885L59.1934 0.172342L59.7227 0.514627C59.7656 0.541482 59.8188 0.568338 59.8823 0.595193C59.981 0.636697 60.104 0.678201 60.252 0.719705C60.3735 0.753885 60.498 0.790994 60.6255 0.831033L60.7407 0.868142C60.8301 0.896951 60.9209 0.927224 61.0132 0.958963C61.4766 1.07322 61.9287 1.20408 62.3696 1.35252C62.5942 1.4282 62.793 1.51707 62.9663 1.61912C63.0381 1.6616 63.1055 1.70603 63.1685 1.75291C63.2031 1.77879 63.2363 1.80515 63.2686 1.8325C63.3135 1.87058 63.356 1.91013 63.3955 1.95115L63.561 2.25926C63.605 2.50974 63.6436 2.73777 63.6768 2.94334L63.7183 3.18357C63.7407 3.30857 63.7656 3.43357 63.7925 3.55906C63.8809 4.03806 63.958 4.51121 64.0239 4.97849C64.0903 5.44627 64.1343 5.96482 64.1562 6.53513C64.2666 6.99119 64.3716 7.4531 64.4707 7.92039C64.5698 8.38816 64.6636 8.85008 64.752 9.30613L64.8208 9.70799C64.8608 9.93308 64.9019 10.1553 64.9443 10.3735C64.9995 10.6562 65.0566 10.9331 65.1162 11.2046C65.2485 11.8091 65.4248 12.3847 65.6455 12.9321C65.7568 12.9321 65.8462 12.935 65.9126 12.9409C65.9775 12.9468 66.021 12.9551 66.0425 12.9663C66.3071 12.8525 66.6157 12.7837 66.9688 12.7612L67.3989 12.727L67.5312 13.1372C67.5757 13.206 67.6304 13.2744 67.6968 13.3428C67.7632 13.4111 67.8403 13.4795 67.9282 13.5478C68.064 13.5566 68.1855 13.5727 68.2935 13.5967C68.4663 13.6352 68.604 13.6928 68.7061 13.77C68.7603 13.811 68.8115 13.8515 68.8594 13.8911C68.9116 13.9345 68.9604 13.977 69.0063 14.019L69.062 14.0718L69.1196 14.1294C69.147 14.1582 69.1792 14.1889 69.2158 14.2221L69.2852 14.2832C69.3511 14.3403 69.4062 14.3803 69.4502 14.4033L70.0459 14.6426L69.7153 15.2925C69.5903 15.5395 69.4316 15.7837 69.2388 16.0244C69.0576 16.2505 68.8467 16.4741 68.6064 16.6953C68.1104 17.1513 67.5532 17.5273 66.9355 17.8237C66.98 17.9834 67.0073 18.1318 67.0186 18.2685C67.0293 18.4053 67.0571 18.5649 67.1011 18.7475C67.1548 19.0234 67.2021 19.3061 67.2432 19.5947C67.27 19.7827 67.2944 19.9736 67.3164 20.1675C67.333 20.3164 67.3442 20.4673 67.3496 20.6196C67.3623 20.9678 67.3457 21.3247 67.2998 21.6894C67.2378 21.8564 67.1724 22.0185 67.104 22.1758C66.9297 22.5766 66.7358 22.9443 66.522 23.2803C66.2246 23.7475 65.8716 24.1694 65.4634 24.5459C65.0552 24.9223 64.5977 25.23 64.0903 25.4697C63.583 25.709 63.0537 25.8403 62.502 25.8628C62.3677 25.833 62.2495 25.8012 62.1465 25.7671C62.0127 25.7231 61.9048 25.6753 61.8237 25.6235C61.6802 25.5322 61.5537 25.4409 61.4434 25.3496C61.2666 25.2129 61.1235 25.1216 61.0132 25.0762L60.583 24.8711L60.7153 24.3579C60.7817 24.1753 60.7759 24.0156 60.6987 23.8789C60.6855 23.8559 60.6704 23.832 60.6528 23.8066L60.6191 23.7588C60.6011 23.7348 60.5811 23.7099 60.5591 23.6841C60.5312 23.6509 60.501 23.6162 60.4673 23.5801L60.3906 23.4995C60.3389 23.4463 60.2817 23.3906 60.2192 23.3315C60.1309 23.2632 60.0537 23.1889 59.9873 23.1094C59.9214 23.0293 59.8442 22.9438 59.7559 22.8525L59.0942 22.0659L60.186 21.7578C60.5503 21.6577 60.8477 21.5415 61.0781 21.4096C61.2666 21.3022 61.4102 21.1845 61.5093 21.0566C61.5469 21.0078 61.5806 20.9526 61.6104 20.8911C61.6436 20.8232 61.6719 20.7475 61.6958 20.6636C61.7764 20.3784 61.8022 20.0019 61.7739 19.5342C61.2227 19.4204 60.7705 19.4033 60.4175 19.4829C60.0645 19.563 59.7119 19.6484 59.3589 19.7397C58.8516 19.8764 58.355 19.9961 57.8696 20.0986C57.3848 20.2016 56.855 20.2529 56.2817 20.2529C55.9067 20.2529 55.5098 20.2187 55.0903 20.1499L54.7266 20.1157L54.6274 19.7397C54.6274 19.7236 54.624 19.707 54.6172 19.6899L54.6045 19.6636C54.5991 19.6533 54.5923 19.643 54.5845 19.6328C54.5732 19.6177 54.5601 19.602 54.5444 19.5859L54.3955 19.4316C54.2852 19.2949 54.1528 19.1123 53.9985 18.8843C53.8442 18.6562 53.811 18.3711 53.8994 18.0293C53.7451 17.7783 53.6567 17.5161 53.6348 17.2422C53.5464 17.4248 53.4746 17.6015 53.4194 17.7724C53.3643 17.9438 53.3149 18.1089 53.2705 18.2685L53.1382 18.7134L52.708 18.7817C52.6641 18.8276 52.6255 18.896 52.5923 18.9868C52.5591 19.0781 52.5537 19.1465 52.5757 19.1924L52.708 19.5683L52.3774 19.8764C52.333 19.9448 52.2783 20.0019 52.2119 20.0473L52.1509 20.0913L52.1226 20.1147C52.0942 20.1382 52.0688 20.1611 52.0464 20.1845C52.0024 20.435 51.9419 20.6748 51.8643 20.9028C51.8242 21.0205 51.7832 21.1382 51.7407 21.2558C51.7007 21.3662 51.6592 21.4765 51.6162 21.5869C51.5059 21.9516 51.4014 22.3052 51.3018 22.6474C51.2026 22.9892 51.1533 23.3315 51.1533 23.6738L51.021 24.1181C50.9106 24.3008 50.7725 24.4375 50.6069 24.5288C50.52 24.5771 50.4341 24.622 50.3496 24.664C50.2744 24.7012 50.2002 24.7358 50.1274 24.768L50.0605 24.7973L49.9565 24.8457L49.8867 24.8823C49.8271 24.915 49.7759 24.9477 49.7329 24.9804C49.7065 25.001 49.6836 25.0215 49.6641 25.042L49.5649 25.4868L49.0684 25.5552C48.7817 25.6235 48.5776 25.6689 48.4565 25.6919C48.335 25.7148 48.1973 25.7261 48.043 25.7261L47.6128 25.6919C47.3481 25.4184 47.1328 25.2075 46.9678 25.0591C46.8022 24.9106 46.6089 24.7798 46.3887 24.6655L46.1899 24.3921C46.1665 24.3432 46.145 24.2959 46.1265 24.2495C46.1133 24.2173 46.1011 24.1855 46.0903 24.1543C46.0586 24.0635 46.0366 23.977 46.0244 23.896C46.0024 23.7475 45.9692 23.5937 45.9253 23.4341C45.8813 23.1377 45.8149 22.9326 45.7266 22.8183L45.2305 22.3052ZM54.8921 14.8481C55.1787 14.3467 55.4766 13.8677 55.7856 13.4116L55.8184 13.3774C56.1494 12.7387 56.5684 12.0659 57.0757 11.3589C57.583 10.6518 58.1128 9.9907 58.6641 9.37498L58.8296 9.03269C58.9907 9.62302 59.1445 10.2109 59.291 10.7964C59.3652 11.0928 59.4375 11.3886 59.5078 11.6841C59.7173 12.562 59.9102 13.4228 60.0869 14.2666L59.9019 14.3042L59.645 14.354C59.4814 14.3847 59.3208 14.4136 59.1621 14.4404C58.7344 14.5127 58.3257 14.5688 57.936 14.6089C57.2744 14.6772 56.5576 14.7344 55.7856 14.7798C55.6309 14.8027 55.4819 14.8139 55.3389 14.8139C55.1953 14.8139 55.0464 14.8252 54.8921 14.8481ZM89.3359 18.9184C89.4238 18.9868 89.4624 19.0439 89.4517 19.0898L89.4019 19.2949C89.3359 19.3403 89.3081 19.3974 89.3193 19.4658C89.3301 19.5342 89.2915 19.5801 89.2036 19.603C89.0933 19.7851 89.0547 19.9507 89.0874 20.0986C89.1206 20.247 89.1704 20.3896 89.2363 20.5263C89.3027 20.6631 89.3413 20.8003 89.3525 20.937C89.3564 20.9892 89.3486 21.0429 89.3286 21.0986C89.2964 21.1889 89.2324 21.2832 89.1372 21.3818C89.2559 21.4551 89.3774 21.5386 89.5024 21.6318C89.6099 21.7119 89.7197 21.7998 89.832 21.895C89.7783 21.9643 89.7354 22.0337 89.7031 22.103C89.686 22.1401 89.6719 22.1772 89.6606 22.2143C89.624 22.3359 89.6206 22.4575 89.6499 22.5791C89.7051 22.8071 89.7935 23.0405 89.915 23.2803C90.0361 23.5195 90.1572 23.7817 90.2788 24.0669C90.3999 24.352 90.4609 24.6543 90.4609 24.9736C90.6592 25.019 90.8359 25.0991 90.9902 25.2129C91.1445 25.3271 91.2988 25.4468 91.4536 25.5722L91.5156 25.6206L91.5747 25.6645C91.6279 25.7021 91.6821 25.7373 91.7378 25.77C91.8066 25.8105 91.8774 25.8471 91.9497 25.8799C92.126 25.9599 92.3359 26 92.5781 26C93.3945 25.6347 94.0728 25.1162 94.6133 24.4433C95.1538 23.7705 95.6665 23.0522 96.1519 22.2881C96.3438 21.9863 96.5381 21.686 96.7349 21.3872C97.0361 20.9306 97.3438 20.4785 97.6572 20.0303C98.1758 19.289 98.8208 18.6679 99.5928 18.166C99.7031 18.2344 99.8188 18.2685 99.9404 18.2685C100.01 18.2685 100.07 18.2871 100.122 18.3252C100.149 18.3452 100.174 18.3706 100.197 18.4018C100.206 18.4136 100.214 18.4262 100.222 18.4399C100.384 18.664 100.559 18.8784 100.745 19.0835C100.938 19.2954 101.144 19.497 101.363 19.6885C101.793 20.0644 102.24 20.4468 102.703 20.8345L103.105 21.1264C103.369 21.3154 103.648 21.5146 103.944 21.7236C104.396 22.0429 104.721 22.248 104.92 22.3393C105.002 22.3755 105.093 22.3989 105.194 22.4096C105.283 22.4189 105.379 22.4184 105.482 22.4077C105.587 22.397 105.688 22.4018 105.782 22.4219C105.887 22.4438 105.985 22.4848 106.078 22.5449C106.122 22.5903 106.172 22.6704 106.227 22.7842C106.282 22.8984 106.343 22.9668 106.409 22.9892C107.335 23.3769 108.273 23.6279 109.221 23.7422C109.561 23.7827 109.921 23.8135 110.302 23.8335C110.988 23.8701 111.741 23.874 112.563 23.8447C113.186 23.5688 113.726 23.2339 114.184 22.8398C114.278 22.7583 114.37 22.6738 114.458 22.5874L114.681 22.8183C114.742 22.8979 114.793 23.022 114.833 23.1909C114.851 23.2637 114.866 23.3447 114.879 23.4341C114.923 23.5937 114.957 23.7475 114.979 23.896C115 24.0444 115.056 24.2095 115.144 24.3921L115.343 24.6655C115.46 24.7261 115.569 24.7915 115.671 24.8613C115.76 24.9233 115.844 24.9892 115.922 25.0591C116.087 25.2075 116.302 25.4184 116.567 25.6919L116.997 25.7261C117.151 25.7261 117.289 25.7148 117.411 25.6919C117.47 25.6806 117.55 25.664 117.649 25.6416L117.782 25.6118L118.022 25.5552L118.519 25.4868L118.618 25.042C118.707 24.9507 118.861 24.8594 119.082 24.768C119.236 24.6997 119.396 24.6201 119.561 24.5288C119.727 24.4375 119.865 24.3008 119.975 24.1181L120.107 23.6738C120.107 23.5141 120.118 23.3545 120.14 23.1953C120.164 23.0127 120.203 22.8301 120.256 22.6474L120.443 22.0107L120.57 21.5869L120.675 21.3086C120.725 21.1733 120.772 21.0381 120.818 20.9028C120.896 20.6748 120.957 20.435 121 20.1845C121.045 20.1387 121.1 20.0932 121.166 20.0473C121.232 20.0019 121.287 19.9448 121.332 19.8764L121.662 19.5683L121.53 19.1924C121.508 19.1465 121.513 19.0781 121.546 18.9868C121.57 18.9228 121.596 18.8701 121.624 18.8286C121.636 18.811 121.649 18.7954 121.662 18.7817L122.092 18.7134L122.225 18.2685C122.269 18.1089 122.318 17.9438 122.374 17.7724C122.404 17.6777 122.44 17.5815 122.48 17.4834C122.513 17.4043 122.549 17.3237 122.589 17.2422C122.611 17.5161 122.699 17.7783 122.854 18.0293C122.765 18.3711 122.798 18.6562 122.953 18.8843L123.083 19.0732L123.187 19.2182C123.246 19.2988 123.3 19.3701 123.35 19.4316L123.499 19.5859C123.554 19.6426 123.582 19.6938 123.582 19.7397L123.681 20.1157L124.044 20.1499C124.464 20.2187 124.861 20.2529 125.236 20.2529C125.809 20.2529 126.339 20.2016 126.824 20.0986C127.309 19.9961 127.806 19.8764 128.313 19.7397C128.666 19.6484 129.019 19.563 129.372 19.4829C129.725 19.4033 130.177 19.4204 130.728 19.5342C130.772 20.2641 130.684 20.7715 130.463 21.0566C130.243 21.3418 129.802 21.5757 129.14 21.7578L128.048 22.0659L128.71 22.8525C128.798 22.9438 128.875 23.0293 128.941 23.1094C129.008 23.1889 129.085 23.2632 129.173 23.3315C129.416 23.5595 129.576 23.7422 129.653 23.8789C129.73 24.0156 129.736 24.1753 129.669 24.3579L129.537 24.8711L129.967 25.0762C130.078 25.1216 130.221 25.2129 130.397 25.3496C130.508 25.4409 130.634 25.5322 130.778 25.6235C130.921 25.7148 131.147 25.7944 131.456 25.8628C132.008 25.8403 132.537 25.709 133.044 25.4697C133.552 25.23 134.009 24.9223 134.417 24.5459C134.826 24.1694 135.179 23.7475 135.476 23.2803C135.774 22.8125 136.033 22.2827 136.254 21.6894C136.32 21.165 136.326 20.6577 136.271 20.1675C136.215 19.6767 136.144 19.2036 136.055 18.7475C136.011 18.5649 135.983 18.4053 135.973 18.2685C135.961 18.1318 135.934 17.9834 135.89 17.8237C136.507 17.5273 137.064 17.1513 137.561 16.6953C138.057 16.2387 138.427 15.7715 138.669 15.2925L139 14.6426L138.404 14.4033L138.381 14.3901C138.366 14.3813 138.35 14.3706 138.333 14.3579C138.304 14.3374 138.273 14.3125 138.239 14.2832C138.173 14.2265 138.118 14.1753 138.074 14.1294C137.963 14.0156 137.826 13.8955 137.66 13.77C137.495 13.645 137.235 13.5708 136.882 13.5478C136.794 13.4795 136.717 13.4111 136.651 13.3428C136.584 13.2744 136.53 13.206 136.485 13.1372L136.353 12.727L135.923 12.7612C135.57 12.7837 135.261 12.8525 134.997 12.9663C134.953 12.9433 134.82 12.9321 134.6 12.9321C134.379 12.3847 134.203 11.8091 134.07 11.2046C133.938 10.6001 133.816 9.96726 133.706 9.30613C133.648 9.00681 133.588 8.70506 133.525 8.40086L133.425 7.92039C133.326 7.4531 133.221 6.99119 133.11 6.53513C133.088 5.96482 133.044 5.44627 132.978 4.97849C132.944 4.73728 132.907 4.49461 132.867 4.25047C132.83 4.02146 132.79 3.79099 132.747 3.55906C132.703 3.35349 132.664 3.14842 132.631 2.94334C132.598 2.73777 132.559 2.50974 132.515 2.25926L132.35 1.95115C132.107 1.70017 131.765 1.50095 131.324 1.35252C130.883 1.20408 130.431 1.07322 129.967 0.958963C129.703 0.868142 129.449 0.788064 129.206 0.719705C128.963 0.651346 128.787 0.582986 128.677 0.514627L128.147 0.172342L127.75 0.753885C127.177 1.66599 126.609 2.44724 126.046 3.09715C125.484 3.74705 124.839 4.24314 124.111 4.58543L123.515 4.4824C123.361 4.4824 123.234 4.49949 123.135 4.53416C123.086 4.55076 123.039 4.56883 122.993 4.58836C122.945 4.60887 122.898 4.63035 122.854 4.65379L122.489 4.61961L122.258 4.9614C121.905 5.395 121.613 5.83933 121.381 6.29588C121.149 6.75193 120.935 7.20799 120.736 7.66404C120.659 7.83396 120.581 8.00144 120.501 8.16697C120.399 8.37937 120.295 8.58787 120.19 8.79295C120.002 9.15769 119.754 9.56834 119.445 10.0244C119.401 10.1611 119.379 10.2807 119.379 10.3838C119.379 10.4863 119.39 10.583 119.413 10.6743C119.329 10.8677 119.243 11.0586 119.157 11.248C119.04 11.5053 118.921 11.7588 118.8 12.0083C118.705 12.2051 118.611 12.4018 118.518 12.5986C118.406 12.8354 118.296 13.0718 118.188 13.3086L117.964 13.7803L117.66 14.4258C117.209 15.3823 116.773 16.3213 116.352 17.2422C116.037 17.9297 115.727 18.6333 115.422 19.3535C115.354 19.2905 115.287 19.2285 115.224 19.167C115.167 19.1128 115.113 19.0586 115.061 19.0044C114.874 18.8105 114.681 18.622 114.482 18.4399C114.284 18.2573 114.074 18.0864 113.854 17.9267C113.633 17.7671 113.357 17.6299 113.026 17.5161C112.973 17.5068 112.932 17.5078 112.902 17.519C112.857 17.5351 112.838 17.5742 112.844 17.6357C112.852 17.707 112.831 17.7588 112.78 17.7915C112.757 17.8061 112.729 17.8169 112.695 17.8237C111.703 17.8237 110.743 17.8125 109.817 17.7895C108.891 17.7671 108.03 17.6528 107.236 17.4477C106.442 17.2422 105.725 16.9116 105.085 16.4555C104.446 15.9995 103.927 15.3266 103.53 14.4375C103.548 14.3872 103.57 14.3393 103.596 14.2944C103.614 14.2627 103.634 14.2319 103.656 14.2026C103.671 14.1826 103.688 14.1626 103.705 14.1435L103.737 14.1089C103.779 14.0669 103.826 14.0278 103.877 13.9927C103.982 13.9204 104.072 13.8345 104.146 13.7344C104.188 13.6767 104.226 13.6147 104.258 13.5478C104.346 13.5249 104.424 13.5078 104.49 13.4966L104.536 13.4897L104.583 13.4848C104.625 13.4814 104.672 13.4795 104.721 13.4795C104.832 13.2514 104.98 13.0576 105.168 12.8979C105.355 12.7383 105.554 12.5845 105.764 12.436C105.973 12.2881 106.177 12.1338 106.376 11.9741C106.574 11.8144 106.74 11.6323 106.872 11.4267C107.002 11.3218 107.133 11.2197 107.263 11.1201C107.423 10.998 107.582 10.8799 107.741 10.7661C108.043 10.5498 108.343 10.3481 108.642 10.1611C109.227 9.79636 109.8 9.44285 110.363 9.10056C110.925 8.75877 111.477 8.39939 112.017 8.02342C112.148 7.93211 112.278 7.83738 112.408 7.73875C112.523 7.65183 112.638 7.56199 112.753 7.46922C112.847 7.39304 112.941 7.31443 113.036 7.23387C113.232 7.06638 113.427 6.8906 113.622 6.70603C113.683 6.48679 113.751 6.29148 113.827 6.12058C113.862 6.04295 113.898 5.97019 113.936 5.90232C114.058 5.68553 114.162 5.48631 114.25 5.30369C114.239 5.08885 114.212 4.90379 114.17 4.74803C114.132 4.60642 114.082 4.48924 114.019 4.39695C113.887 4.2031 113.727 4.03806 113.539 3.90086C113.352 3.76414 113.164 3.62156 112.977 3.47361C112.889 3.40428 112.807 3.31834 112.731 3.21629C112.681 3.1489 112.634 3.0742 112.589 2.99265C112.557 2.93455 112.526 2.87254 112.497 2.80662C112.122 2.78367 111.824 2.62986 111.604 2.3447C111.383 2.05955 111.163 1.79148 110.942 1.54051C110.792 1.60301 110.645 1.66746 110.501 1.73435C110.329 1.81443 110.161 1.89793 109.999 1.98533C109.836 2.07273 109.661 2.1533 109.475 2.22703C109.321 2.28806 109.159 2.34422 108.99 2.39597C108.968 2.5781 109 2.6865 109.089 2.72068C109.177 2.75486 109.21 2.85203 109.188 3.0117C109.078 2.94334 108.962 2.88621 108.841 2.8408C108.719 2.7949 108.548 2.81785 108.328 2.90916C107.887 3.22849 107.451 3.51902 107.021 3.78123C106.787 3.92381 106.558 4.0698 106.333 4.21922C106.146 4.34471 105.961 4.47263 105.78 4.60252C105.383 4.88719 104.992 5.19529 104.605 5.52586C104.22 5.85642 103.773 6.20457 103.266 6.56931C102.626 7.09373 101.876 7.65281 101.016 8.24558C100.571 8.55222 100.156 8.87058 99.77 9.20164C99.5591 9.3823 99.3569 9.56687 99.1636 9.75535C99.0264 9.88865 98.894 10.0239 98.7656 10.1611L98.7788 10.0117C98.7871 9.93015 98.7979 9.84715 98.8101 9.76267C98.8359 9.58347 98.8706 9.39744 98.9146 9.20359C98.9395 9.09226 98.9678 8.98094 98.9985 8.86961C99.063 8.63865 99.1396 8.40769 99.229 8.17722C99.3613 7.83494 99.5269 7.51023 99.7251 7.20213C99.9238 6.89451 100.145 6.63767 100.387 6.4326C100.299 6.34129 100.254 6.26707 100.254 6.20994C100.254 6.1533 100.271 6.09617 100.304 6.03904C100.337 5.98191 100.365 5.91941 100.387 5.85105C100.409 5.78269 100.409 5.68015 100.387 5.54295C100.576 5.44529 100.732 5.3281 100.856 5.19187C100.993 5.04148 101.09 4.86814 101.148 4.67088C101.199 4.49803 101.229 4.32322 101.237 4.14597C101.248 3.9365 101.229 3.72361 101.181 3.50779C101.093 3.10838 100.938 2.72068 100.718 2.3447C100.497 1.96824 100.244 1.65476 99.957 1.40379L99.3613 1.50633C99.251 1.39256 99.1626 1.26121 99.0967 1.11326C99.0303 0.964822 98.9531 0.833474 98.8647 0.719705C98.6665 0.719705 98.479 0.696756 98.3022 0.651346C98.126 0.605447 97.9604 0.548806 97.8062 0.480447C97.6519 0.411599 97.4917 0.349099 97.3262 0.291971C97.1611 0.234842 96.979 0.195291 96.7803 0.172342C96.5859 0.283181 96.4097 0.407205 96.2515 0.5449C96.0508 0.718728 95.8799 0.913553 95.7383 1.13035C95.4844 1.51804 95.2642 1.92283 95.0767 2.3447C94.8892 2.76658 94.7017 3.1826 94.5142 3.59324C94.3267 4.00388 94.0894 4.3574 93.8027 4.65379C93.5381 5.93064 93.2017 7.11082 92.7935 8.19431C92.3853 9.27732 91.9771 10.355 91.5693 11.4267C91.1611 12.499 90.7861 13.5991 90.4443 14.728C90.1025 15.8569 89.876 17.1054 89.7661 18.4741L89.4351 18.6108C89.3247 18.6562 89.2915 18.7588 89.3359 18.9184ZM115.422 19.3535C115.161 19.9717 114.902 20.602 114.648 21.2446L114.615 21.9634L114.185 22.3052L114.458 22.5874C114.542 22.5034 114.624 22.4179 114.702 22.3296L114.796 22.2197C115.359 21.5469 115.662 20.6748 115.707 19.603C115.607 19.519 115.513 19.4355 115.422 19.3535ZM123.846 14.8481C124.133 14.3467 124.431 13.8677 124.74 13.4116L124.772 13.3774C124.976 12.9848 125.212 12.5796 125.482 12.1606C125.652 11.8984 125.834 11.6313 126.03 11.3589C126.537 10.6518 127.067 9.9907 127.618 9.37498L127.784 9.03269C128.026 9.92234 128.252 10.8056 128.462 11.6841C128.671 12.562 128.864 13.4228 129.041 14.2666C128.269 14.4262 127.552 14.5405 126.89 14.6089C126.229 14.6772 125.512 14.7344 124.74 14.7798C124.585 14.8027 124.436 14.8139 124.293 14.8139C124.149 14.8139 124 14.8252 123.846 14.8481Z" fill="white"/>
</svg>
